<svg xmlns="http://www.w3.org/2000/svg" width="1200" height="420" viewBox="0 0 1200 420" role="img" aria-labelledby="title desc">
  <title id="title">CrossDA cover</title>
  <desc id="desc">Cross-session EEG Classification and Domain Adaptation</desc>
  
    <defs>
      <linearGradient id="accentGrad" x1="0" x2="1" y1="0" y2="1">
        <stop offset="0" stop-color="#4338CA"/>
        <stop offset="1" stop-color="#0D9488"/>
      </linearGradient>
      <filter id="softShadow" x="-20%" y="-20%" width="140%" height="140%">
        <feDropShadow dx="0" dy="8" stdDeviation="12" flood-color="#0F172A" flood-opacity="0.08"/>
      </filter>
      <pattern id="grid" width="32" height="32" patternUnits="userSpaceOnUse">
        <path d="M 32 0 L 0 0 0 32" fill="none" stroke="#E2E8F0" stroke-width="1" opacity="0.55"/>
      </pattern>
    </defs>
  <rect width="1200" height="420" fill="#F8FAFC"/>
  <rect width="1200" height="420" fill="url(#grid)" opacity="0.36"/>
  <circle cx="1020" cy="88" r="150" fill="#4338CA" opacity="0.045"/>
  <circle cx="114" cy="350" r="120" fill="#0D9488" opacity="0.045"/>
  <g font-family="Inter, ui-sans-serif, system-ui, -apple-system, BlinkMacSystemFont, Segoe UI, sans-serif">
    <rect x="48" y="30" width="1104" height="360" rx="24" fill="#FFFFFF" opacity="0.96" filter="url(#softShadow)"/>
    <rect x="48" y="30" width="1104" height="360" rx="24" fill="none" stroke="#E2E8F0" stroke-width="1.2"/>
    <text x="86" y="82" fill="#0F172A" font-size="42" font-weight="850" letter-spacing="0">CrossDA</text>
    <text x="88" y="112" fill="#475569" font-size="17" font-weight="550" letter-spacing="0">Cross-session EEG Classification and Domain Adaptation</text>
    <rect x="954" y="56" width="156" height="34" rx="17" fill="#F8FAFC" stroke="#4338CA" stroke-width="1.4"/>
    <text x="1032" y="78" fill="#4338CA" font-size="13" font-weight="800" text-anchor="middle" letter-spacing="0">Python package</text>
    <g transform="translate(0 16)"><rect x="124" y="114" width="92" height="44" rx="12" fill="#FFFFFF" stroke="#CBD5E1" stroke-width="1.2"/><circle cx="146" cy="136" r="7" fill="#4338CA" stroke="none" stroke-width="1" opacity="0.75"/><text x="177" y="142" fill="#334155" font-size="14" font-weight="800" text-anchor="middle" letter-spacing="0" >S1</text><path d="M 216 136 C 320 136 360 210 460 210" fill="none" stroke="#94A3B8" stroke-width="2" opacity="0.55" stroke-linecap="round" stroke-linejoin="round"/><rect x="124" y="174" width="92" height="44" rx="12" fill="#FFFFFF" stroke="#CBD5E1" stroke-width="1.2"/><circle cx="146" cy="196" r="7" fill="#4338CA" stroke="none" stroke-width="1" opacity="0.75"/><text x="177" y="202" fill="#334155" font-size="14" font-weight="800" text-anchor="middle" letter-spacing="0" >S2</text><path d="M 216 196 C 320 196 360 210 460 210" fill="none" stroke="#94A3B8" stroke-width="2" opacity="0.55" stroke-linecap="round" stroke-linejoin="round"/><rect x="124" y="234" width="92" height="44" rx="12" fill="#FFFFFF" stroke="#CBD5E1" stroke-width="1.2"/><circle cx="146" cy="256" r="7" fill="#4338CA" stroke="none" stroke-width="1" opacity="0.75"/><text x="177" y="262" fill="#334155" font-size="14" font-weight="800" text-anchor="middle" letter-spacing="0" >S3</text><path d="M 216 256 C 320 256 360 210 460 210" fill="none" stroke="#94A3B8" stroke-width="2" opacity="0.55" stroke-linecap="round" stroke-linejoin="round"/><rect x="124" y="294" width="92" height="44" rx="12" fill="#FFFFFF" stroke="#CBD5E1" stroke-width="1.2"/><circle cx="146" cy="316" r="7" fill="#4338CA" stroke="none" stroke-width="1" opacity="0.75"/><text x="177" y="322" fill="#334155" font-size="14" font-weight="800" text-anchor="middle" letter-spacing="0" >S4</text><path d="M 216 316 C 320 316 360 210 460 210" fill="none" stroke="#94A3B8" stroke-width="2" opacity="0.55" stroke-linecap="round" stroke-linejoin="round"/><rect x="455" y="124" width="220" height="172" rx="18" fill="#FFFFFF" stroke="#E2E8F0" stroke-width="1.2"/><text x="565" y="160" fill="#4338CA" font-size="18" font-weight="800" text-anchor="middle" letter-spacing="0" >method bank</text><rect x="488" y="180" width="72" height="28" rx="14" fill="#FFFFFF" stroke="#4338CA" stroke-width="1.5"/><text x="524" y="199" fill="#4338CA" font-size="12" font-weight="700" text-anchor="middle" letter-spacing="0" >MAP</text><rect x="582" y="180" width="72" height="28" rx="14" fill="#FFFFFF" stroke="#0D9488" stroke-width="1.5"/><text x="618" y="199" fill="#0D9488" font-size="12" font-weight="700" text-anchor="middle" letter-spacing="0" >DWP</text><rect x="488" y="228" width="72" height="28" rx="14" fill="#FFFFFF" stroke="#4338CA" stroke-width="1.5"/><text x="524" y="247" fill="#4338CA" font-size="12" font-weight="700" text-anchor="middle" letter-spacing="0" >MMP</text><rect x="582" y="228" width="72" height="28" rx="14" fill="#FFFFFF" stroke="#0D9488" stroke-width="1.5"/><text x="618" y="247" fill="#0D9488" font-size="12" font-weight="700" text-anchor="middle" letter-spacing="0" >BDP</text><path d="M 675 210 C 740 210 780 210 832 210" fill="none" stroke="#0D9488" stroke-width="3" stroke-linecap="round" stroke-linejoin="round"/><rect x="835" y="152" width="190" height="116" rx="18" fill="#FFFFFF" stroke="#CBD5E1" stroke-width="1.2"/><circle cx="892" cy="210" r="38" fill="#0D9488" stroke="none" stroke-width="1" opacity="0.14"/><circle cx="892" cy="210" r="38" fill="none" stroke="#0D9488" stroke-width="2.5"/><text x="960" y="204" fill="#334155" font-size="15" font-weight="800" text-anchor="middle" letter-spacing="0" >target</text><text x="960" y="226" fill="#334155" font-size="15" font-weight="800" text-anchor="middle" letter-spacing="0" >session</text></g>
    <line x1="86" y1="364" x2="1114" y2="364" stroke="#E2E8F0" stroke-width="1"/>
    <circle cx="92" cy="379" r="4" fill="#4338CA"/>
    <text x="108" y="384" fill="#64748B" font-size="13" font-weight="650" letter-spacing="0">Cross-session EEG / BCI methods toolkit</text>
    <text x="1114" y="384" fill="#94A3B8" font-size="12" font-weight="600" text-anchor="end" letter-spacing="0">Yiming Shen</text>
  </g>
</svg>
